HIERARCHY
ROOT Hips
{
	OFFSET 0 0 0
	CHANNELS 6 Xposition Yposition Zposition Xrotation Yrotation Zrotation
	JOINT LeftHandThumb1
	{
		OFFSET 1.78 -1.1 1.54
		CHANNELS 3 Xrotation Yrotation Zrotation
		JOINT LeftHandThumb2
		{
			OFFSET 3.18423 0 0
			CHANNELS 3 Xrotation Yrotation Zrotation
			JOINT LeftHandThumb3
			{
				OFFSET 3.62493 0 0
				CHANNELS 3 Xrotation Yrotation Zrotation
				JOINT LeftHandThumb4
				{
					OFFSET 2.65828 0 0
					CHANNELS 3 Xrotation Yrotation Zrotation
					End Site
					{
						OFFSET -0 0 0
					}
				}
			}
		}
	}
	JOINT LeftHandIndex1
	{
		OFFSET 7.4475 0.841835 3.96155
		CHANNELS 3 Xrotation Yrotation Zrotation
		JOINT LeftHandIndex2
		{
			OFFSET 4.09997 0 0
			CHANNELS 3 Xrotation Yrotation Zrotation
			JOINT LeftHandIndex3
			{
				OFFSET 1.88792 0 0
				CHANNELS 3 Xrotation Yrotation Zrotation
				JOINT LeftHandIndex4
				{
					OFFSET 1.76905 0 0
					CHANNELS 3 Xrotation Yrotation Zrotation
					End Site
					{
						OFFSET -0 0 0
					}
				}
			}
		}
	}
	JOINT LeftHandMiddle1
	{
		OFFSET 8.15202 0.976627 0.886065
		CHANNELS 3 Xrotation Yrotation Zrotation
		JOINT LeftHandMiddle2
		{
			OFFSET 4.6 0 0
			CHANNELS 3 Xrotation Yrotation Zrotation
			JOINT LeftHandMiddle3
			{
				OFFSET 2.00908 0 0
				CHANNELS 3 Xrotation Yrotation Zrotation
				JOINT LeftHandMiddle4
				{
					OFFSET 1.47333 0 0
					CHANNELS 3 Xrotation Yrotation Zrotation
					End Site
					{
						OFFSET -0 0 0
					}
				}
			}
		}
	}
	JOINT LeftHandRing1
	{
		OFFSET 7.18367 0.497501 -1.72915
		CHANNELS 3 Xrotation Yrotation Zrotation
		JOINT LeftHandRing2
		{
			OFFSET 4.36337 0 0
			CHANNELS 3 Xrotation Yrotation Zrotation
			JOINT LeftHandRing3
			{
				OFFSET 2.36208 0 0
				CHANNELS 3 Xrotation Yrotation Zrotation
				JOINT LeftHandRing4
				{
					OFFSET 1.73219 0 0
					CHANNELS 3 Xrotation Yrotation Zrotation
					End Site
					{
						OFFSET -0 0 0
					}
				}
			}
		}
	}
	JOINT LeftHandPinky1
	{
		OFFSET 7.41209 -0.417872 -3.72321
		CHANNELS 3 Xrotation Yrotation Zrotation
		JOINT LeftHandPinky2
		{
			OFFSET 2.81501 0 0
			CHANNELS 3 Xrotation Yrotation Zrotation
			JOINT LeftHandPinky3
			{
				OFFSET 2.01927 0 0
				CHANNELS 3 Xrotation Yrotation Zrotation
				JOINT LeftHandPinky4
				{
					OFFSET 1.19603 0 0
					CHANNELS 3 Xrotation Yrotation Zrotation
					End Site
					{
						OFFSET -0 0 0
					}
				}
			}
		}
	}
}
MOTION
Frames: 18
Frame Time: 0.00833333
28.06827698 24.64107819 18.65571747 -74.46670075 -47.57944754 -93.38079616 -56.82773354 -26.68359648 -44.60700127 0 -3.2186942 0.00000009 0.00000002 -8.40093211 0.00000023 -0 0 -0 -5.20787539 -1.2541974 -6.41409298 -0 0 0.40437479 -0 0 0.20811281 -0 0 0 0.44007842 -1.29720921 -0.58055491 -0 0 -1.71470291 -0 0 1.76519405 -0 0 0 0.10479146 3.05415259 1.21766766 -0 0 0.52578694 -0 0 6.34119285 -0 0 0 1.2927949 11.73740014 -2.71562386 -0 0 0.72179255 -0 0 -4.15056969 -0 0 0
28.07483826 24.63820953 18.65752106 -74.43559583 -47.55429974 -93.33552514 -56.82253957 -26.64536068 -44.61799256 0 -3.24950053 0.00000009 0.00000002 -8.40537991 0.00000023 -0 0 0 -5.20497153 -1.271027 -6.42660963 -0 0 0.40553607 -0 0 0.20927406 -0 0 0 0.44579139 -1.32079194 -0.59312032 -0 0 -1.7005384 -0 0 1.7418734 -0 0 0 0.11059781 3.03258339 1.19952897 -0 0 0.52645245 -0 0 6.34185876 -0 0 0 1.29889153 11.72316962 -2.7195647 -0 0 0.79397989 -0 0 -4.23144456 -0 0 0
28.08097229 24.63678589 18.65888977 -74.41935112 -47.55474865 -93.31415501 -56.81905159 -26.60537268 -44.62131633 0 -3.2930586 0.00000009 0.00000002 -8.40580219 0.00000023 0 0 0 -5.21914589 -1.27534648 -6.43294487 -0 0 0.39684117 -0 0 0.21527465 -0 0 0 0.43272603 -1.33143093 -0.5957367 -0 0 -1.6858429 -0 0 1.72170033 -0 0 0 0.09558711 3.02650902 1.19300117 -0 0 0.53033167 -0 0 6.34573769 -0 0 0 1.28071937 11.71891489 -2.70807052 -0 0 0.89598332 -0 0 -4.33774415 -0 0 0
28.09015808 24.63599854 18.65961304 -74.41373302 -47.55893975 -93.31174203 -56.81388416 -26.56872561 -44.61527432 0 -3.34670971 0.00000009 0.00000002 -8.4082581 0.00000023 -0 0 -0 -5.23154373 -1.26932596 -6.42755787 -0 0 0.38822912 -0 0 0.22077717 -0 0 0 0.42216608 -1.32840917 -0.58182678 -0 0 -1.66835323 -0 0 1.70492999 -0 0 0 0.080798 3.037459 1.20718035 -0 0 0.53872316 -0 0 6.35412948 -0 0 0 1.25951838 11.72709681 -2.674535 -0 0 0.92559203 -0 0 -4.36858836 -0 0 0
28.10133057 24.64078979 18.65993652 -74.4229539 -47.56260253 -93.38337294 -56.78654537 -26.55237106 -44.57733144 0 -3.40671446 0.00000009 0.00000002 -8.41619214 0.00000023 -0 -0 0 -5.24331 -1.26382275 -6.34823776 -0 0 0.38330963 -0 0 0.22927395 -0 0 0 0.41148593 -1.31868798 -0.50269723 -0 0 -1.65231715 -0 0 1.68869704 -0 0 0 0.06057862 3.05844543 1.28931731 -0 0 0.54520996 -0 0 6.36061632 -0 0 0 1.22621352 11.74896734 -2.5731498 -0 0 0.90469806 -0 0 -4.35315376 -0 0 0
28.10726929 24.64202576 18.66183929 -74.40143498 -47.54677013 -93.36921406 -56.7570435 -26.53778191 -44.5530956 0 -3.42770729 0.00000009 0.00000002 -8.42147089 0.00000023 0 0 0 -5.24022464 -1.2766832 -6.33154978 -0 0 0.37693612 -0 0 0.23570321 -0 0 0 0.42444141 -1.33366144 -0.48784075 -0 0 -1.63560848 -0 0 1.67283425 -0 0 0 0.06449691 3.05178153 1.29805272 -0 0 0.55052135 -0 0 6.36592766 -0 0 0 1.23034854 11.74348623 -2.5425104 -0 0 0.9581679 -0 0 -4.41907341 -0 0 0
28.11463318 24.64844513 18.66496124 -74.37334802 -47.53193084 -93.40085582 -56.71009599 -26.53810081 -44.51913717 0 -3.47008695 0.00000009 0.00000002 -8.42374152 0.00000023 -0 -0 0 -5.2183985 -1.2941748 -6.27035691 -0 0 0.36766859 -0 0 0.23938959 -0 0 0 0.44735673 -1.34815115 -0.42546065 -0 0 -1.61794625 -0 0 1.65683242 -0 0 0 0.07654588 3.03966874 1.34982324 -0 0 0.5545022 -0 0 6.36990841 -0 0 0 1.23813003 11.72770548 -2.46781602 -0 0 0.9216013 -0 0 -4.39341675 -0 0 0
28.12071533 24.65257721 18.66835938 -74.37098767 -47.53095712 -93.4371458 -56.66125397 -26.53903217 -44.47786174 0 -3.49802587 0.00000009 0.00000002 -8.42467293 0.00000023 -0 -0 0 -5.19794896 -1.30511344 -6.19949206 -0 0 0.35405401 -0 0 0.23430559 -0 0 0 0.46757006 -1.33639105 -0.37455972 -0 0 -1.60135506 -0 0 1.63941147 -0 0 0 0.08789901 3.05486031 1.39039312 -0 0 0.56011663 -0 0 6.37552266 -0 0 0 1.25329192 11.74121153 -2.40474469 -0 0 0.96844366 -0 0 -4.44814252 -0 0 0
28.12269592 24.65305939 18.67201691 -74.35600237 -47.52464727 -93.404466 -56.62000619 -26.53348105 -44.45455218 0 -3.49172532 0.00000009 0.00000002 -8.42909264 0.00000023 0 0 0 -5.1628734 -1.30913677 -6.17506058 -0 0 0.34082315 -0 0 0.22890679 -0 0 0 0.50715451 -1.32017004 -0.36971168 -0 0 -1.58351184 -0 0 1.62157563 -0 0 0 0.12121909 3.07722225 1.38905927 -0 0 0.57059588 -0 0 6.38600175 -0 0 0 1.29608571 11.7597088 -2.39164011 -0 0 0.93866707 -0 0 -4.42380537 -0 0 0
28.12085876 24.65519867 18.6772049 -74.31362954 -47.51930817 -93.3579937 -56.57562966 -26.53123149 -44.43867807 0 -3.48963075 0.00000009 0.00000002 -8.43700369 0.00000023 0 0 0 -5.11108784 -1.31359738 -6.14070526 -0 0 0.32972871 -0 0 0.22804501 -0 0 0 0.56332219 -1.31198633 -0.34417914 -0 0 -1.56181239 -0 0 1.61170176 -0 0 0 0.16850669 3.09375872 1.40881196 -0 0 0.57976863 -0 0 6.39517492 -0 0 0 1.34757136 11.76205222 -2.3533913 -0 0 1.04145491 -0 0 -4.52986493 -0 0 0
28.1186676 24.65784149 18.68215332 -74.21730415 -47.55723253 -93.25268823 -56.53863379 -26.52297713 -44.43733052 0 -3.51762962 0.00000009 0.00000002 -8.44406132 0.00000023 0 0 0 -5.08556907 -1.35067542 -6.115456 -0 0 0.32168635 -0 0 0.22957133 -0 0 0 0.5887249 -1.33536707 -0.32457977 -0 0 -1.53908915 -0 0 1.60229431 -0 0 0 0.18780249 3.08327707 1.42328224 -0 0 0.59087209 -0 0 6.40627815 -0 0 0 1.36729859 11.73348671 -2.31128071 -0 0 1.14187968 -0 0 -4.63288508 -0 0 0
28.12009888 24.65731964 18.68544769 -74.14393433 -47.64085024 -93.17691519 -56.50926063 -26.50890895 -44.42806599 0 -3.55128986 0.0000001 0.00000002 -8.46496924 0.00000023 0 -0 0 -5.09787 -1.37491803 -6.07972799 -0 0 0.30466172 -0 0 0.23492657 -0 0 0 0.57930287 -1.3458969 -0.28570883 -0 0 -1.49991009 -0 0 1.57053978 -0 0 0 0.17161443 3.08419424 1.45676421 -0 0 0.60695745 -0 0 6.42236378 -0 0 0 1.34189037 11.71462333 -2.23302055 -0 0 1.39647081 -0 0 -4.89532033 -0 0 0
28.11770935 24.65599213 18.68828583 -74.07087472 -47.76823222 -93.10023632 -56.49091376 -26.48485518 -44.4196382 0 -3.61374643 0.0000001 0.00000002 -8.46210808 0.00000023 0 -0 -0 -5.13898017 -1.38899203 -6.05401304 -0 0 0.28814459 -0 0 0.24217512 -0 0 0 0.53552098 -1.37091614 -0.24458728 -0 0 -1.45860899 -0 0 1.53491373 -0 0 0 0.12587707 3.07240894 1.4870312 -0 0 0.62476406 -0 0 6.44017028 -0 0 0 1.28942323 11.68409362 -2.14992495 -0 0 1.23878777 -0 0 -4.7496708 -0 0 0
28.11285095 24.65094604 18.69120026 -74.00994864 -47.90137248 -92.97709635 -56.49242896 -26.45095242 -44.43964404 0 -3.6375201 0.0000001 0.00000002 -8.46726712 0.00000023 -0 0 -0 -5.17488312 -1.4077904 -6.07689346 -0 0 0.27815372 -0 0 0.2557972 -0 0 0 0.50520826 -1.39975969 -0.2613781 -0 0 -1.41863998 -0 0 1.49588749 -0 0 0 0.10187204 3.05617499 1.45429052 -0 0 0.6413633 -0 0 6.4567697 -0 0 0 1.26676624 11.64339201 -2.12285026 -0 0 1.30925259 -0 0 -4.83347722 -0 0 0
28.10431519 24.64697723 18.69526215 -73.94881244 -48.03012352 -92.82536568 -56.50478421 -26.4127083 -44.49062885 0 -3.63330452 0.0000001 0.00000002 -8.47769383 0.00000023 -0 -0 -0 -5.18269457 -1.43474774 -6.12332979 -0 0 0.26046119 -0 0 0.26880226 -0 0 0 0.50821365 -1.43329399 -0.30849671 -0 0 -1.36652262 -0 0 1.44042298 -0 0 0 0.11048353 3.03993659 1.39131986 -0 0 0.62387951 -0 0 6.51041015 -0 0 0 1.27668543 11.59623815 -2.13052828 -0 0 1.01559242 -0 0 -4.55239629 -0 0 0
28.09784851 24.64355316 18.69774017 -73.91829451 -48.20281942 -92.69721997 -56.52797986 -26.36664844 -44.54748912 0 -3.63270376 0.0000001 0.00000002 -8.49295232 0.00000023 0 -0 -0 -5.19794131 -1.43886693 -6.16563099 -0 0 0.24237134 -0 0 0.27853777 -0 0 0 0.49746362 -1.44075642 -0.35290616 -0 0 -1.31702468 -0 0 1.3856397 -0 0 0 0.10419645 3.04962047 1.34282865 -0 0 0.62065752 -0 0 6.57514296 -0 0 0 1.26542749 11.55813103 -2.12654579 -0 0 0.84620712 -0 0 -4.37300652 -0 0 0
28.09374695 24.64234314 18.69979553 -73.89252746 -48.42296951 -92.59227739 -56.55297501 -26.31785634 -44.59413479 0 -3.65004483 0.0000001 0.00000002 -8.50528919 0.00000023 -0 -0 0 -5.22410791 -1.43778442 -6.18029012 -0 0 0.22730468 -0 0 0.2882563 -0 0 0 0.47323159 -1.43724992 -0.37208303 -0 0 -1.27362319 -0 0 1.3361194 -0 0 0 0.07801453 3.07454598 1.33268592 -0 0 0.62802863 -0 0 6.65012914 -0 0 0 1.23178928 11.51787376 -2.08480114 -0 0 0.65377186 -0 0 -4.16003268 -0 0 0
28.08771973 24.64222412 18.70191345 -73.85875733 -48.67721219 -92.48062716 -56.57940602 -26.27083081 -44.63538923 0 -3.66082337 0.0000001 0.00000002 -8.51797156 0.00000023 -0 0 0 -5.24566694 -1.43867798 -6.18697522 -0 0 0.21330605 -0 0 0.29814439 -0 0 0 0.45060066 -1.43237422 -0.38070857 -0 0 -1.23053002 -0 0 1.29750814 -0 0 0 0.04597237 3.10974104 1.33390482 -0 0 0.64622999 -0 0 6.75936593 -0 0 0 1.19950635 11.47639623 -2.02059776 -0 0 0.57165805 -0 0 -4.04755671 -0 0 0
